<?xml version="1.0" encoding="UTF-8" standalone="no"?>
<!DOCTYPE svg PUBLIC "-//W3C//DTD SVG 1.1//EN"
 "http://www.w3.org/Graphics/SVG/1.1/DTD/svg11.dtd">
<!-- Generated by graphviz version 6.0.1 (20220911.1526)
 -->
<!-- Title: classes Pages: 1 -->
<svg width="2395pt" height="1039pt"
 viewBox="0.00 0.00 2395.00 1039.00" xmlns="http://www.w3.org/2000/svg" xmlns:xlink="http://www.w3.org/1999/xlink">
<g id="graph0" class="graph" transform="scale(1 1) rotate(0) translate(4 1035)">
<title>classes</title>
<polygon fill="white" stroke="none" points="-4,4 -4,-1035 2391,-1035 2391,4 -4,4"/>
<!-- rpg.views.battle_view.BattleView -->
<g id="node1" class="node">
<title>rpg.views.battle_view.BattleView</title>
<polygon fill="none" stroke="black" points="0,-75.5 0,-189.5 243,-189.5 243,-75.5 0,-75.5"/>
<text text-anchor="middle" x="121.5" y="-174.3" font-family="Times,serif" font-size="14.00">BattleView</text>
<polyline fill="none" stroke="black" points="0,-166.5 243,-166.5"/>
<text text-anchor="start" x="8" y="-151.3" font-family="Times,serif" font-size="14.00">started : bool</text>
<polyline fill="none" stroke="black" points="0,-143.5 243,-143.5"/>
<text text-anchor="start" x="8" y="-128.3" font-family="Times,serif" font-size="14.00">on_draw()</text>
<text text-anchor="start" x="8" y="-113.3" font-family="Times,serif" font-size="14.00">on_key_press(symbol: int, modifiers: int)</text>
<text text-anchor="start" x="8" y="-98.3" font-family="Times,serif" font-size="14.00">on_show_view()</text>
<text text-anchor="start" x="8" y="-83.3" font-family="Times,serif" font-size="14.00">setup()</text>
</g>
<!-- rpg.sprites.character_sprite.CharacterSprite -->
<g id="node2" class="node">
<title>rpg.sprites.character_sprite.CharacterSprite</title>
<polygon fill="none" stroke="black" points="443.5,-601.5 443.5,-745.5 583.5,-745.5 583.5,-601.5 443.5,-601.5"/>
<text text-anchor="middle" x="513.5" y="-730.3" font-family="Times,serif" font-size="14.00">CharacterSprite</text>
<polyline fill="none" stroke="black" points="443.5,-722.5 583.5,-722.5"/>
<text text-anchor="start" x="451.5" y="-707.3" font-family="Times,serif" font-size="14.00">cur_texture_index : int</text>
<text text-anchor="start" x="451.5" y="-692.3" font-family="Times,serif" font-size="14.00">inventory : list</text>
<text text-anchor="start" x="451.5" y="-677.3" font-family="Times,serif" font-size="14.00">position</text>
<text text-anchor="start" x="451.5" y="-662.3" font-family="Times,serif" font-size="14.00">should_update : int</text>
<text text-anchor="start" x="451.5" y="-647.3" font-family="Times,serif" font-size="14.00">texture</text>
<text text-anchor="start" x="451.5" y="-632.3" font-family="Times,serif" font-size="14.00">textures : list</text>
<polyline fill="none" stroke="black" points="443.5,-624.5 583.5,-624.5"/>
<text text-anchor="start" x="451.5" y="-609.3" font-family="Times,serif" font-size="14.00">on_update(delta_time)</text>
</g>
<!-- rpg.views.game_view.DebugMenu -->
<g id="node3" class="node">
<title>rpg.views.game_view.DebugMenu</title>
<polygon fill="none" stroke="black" points="793.5,-53 793.5,-212 985.5,-212 985.5,-53 793.5,-53"/>
<text text-anchor="middle" x="889.5" y="-196.8" font-family="Times,serif" font-size="14.00">DebugMenu</text>
<polyline fill="none" stroke="black" points="793.5,-189 985.5,-189"/>
<text text-anchor="start" x="801.5" y="-173.8" font-family="Times,serif" font-size="14.00">hyper_button : UIFlatButton</text>
<text text-anchor="start" x="801.5" y="-158.8" font-family="Times,serif" font-size="14.00">hyper_status : bool</text>
<text text-anchor="start" x="801.5" y="-143.8" font-family="Times,serif" font-size="14.00">noclip_button : UIFlatButton</text>
<text text-anchor="start" x="801.5" y="-128.8" font-family="Times,serif" font-size="14.00">noclip_status : bool</text>
<text text-anchor="start" x="801.5" y="-113.8" font-family="Times,serif" font-size="14.00">off_style : dict</text>
<text text-anchor="start" x="801.5" y="-98.8" font-family="Times,serif" font-size="14.00">on_style : dict</text>
<polyline fill="none" stroke="black" points="793.5,-91 985.5,-91"/>
<text text-anchor="start" x="801.5" y="-75.8" font-family="Times,serif" font-size="14.00">setup_hyper(callback: Callable)</text>
<text text-anchor="start" x="801.5" y="-60.8" font-family="Times,serif" font-size="14.00">setup_noclip(callback: Callable)</text>
</g>
<!-- rpg.views.game_view.GameView -->
<g id="node5" class="node">
<title>rpg.views.game_view.GameView</title>
<polygon fill="none" stroke="black" points="742.5,-316.5 742.5,-1030.5 1036.5,-1030.5 1036.5,-316.5 742.5,-316.5"/>
<text text-anchor="middle" x="889.5" y="-1015.3" font-family="Times,serif" font-size="14.00">GameView</text>
<polyline fill="none" stroke="black" points="742.5,-1007.5 1036.5,-1007.5"/>
<text text-anchor="start" x="750.5" y="-992.3" font-family="Times,serif" font-size="14.00">camera_gui : Camera</text>
<text text-anchor="start" x="750.5" y="-977.3" font-family="Times,serif" font-size="14.00">camera_sprites : Camera</text>
<text text-anchor="start" x="750.5" y="-962.3" font-family="Times,serif" font-size="14.00">cur_map_name : NoneType, str</text>
<text text-anchor="start" x="750.5" y="-947.3" font-family="Times,serif" font-size="14.00">debug : bool</text>
<text text-anchor="start" x="750.5" y="-932.3" font-family="Times,serif" font-size="14.00">debug_menu</text>
<text text-anchor="start" x="750.5" y="-917.3" font-family="Times,serif" font-size="14.00">down_pressed : bool</text>
<text text-anchor="start" x="750.5" y="-902.3" font-family="Times,serif" font-size="14.00">enemy_dictionary</text>
<text text-anchor="start" x="750.5" y="-887.3" font-family="Times,serif" font-size="14.00">hotbar_sprite_list : list, NoneType</text>
<text text-anchor="start" x="750.5" y="-872.3" font-family="Times,serif" font-size="14.00">item_dictionary</text>
<text text-anchor="start" x="750.5" y="-857.3" font-family="Times,serif" font-size="14.00">left_pressed : bool</text>
<text text-anchor="start" x="750.5" y="-842.3" font-family="Times,serif" font-size="14.00">map_list</text>
<text text-anchor="start" x="750.5" y="-827.3" font-family="Times,serif" font-size="14.00">message_box : NoneType</text>
<text text-anchor="start" x="750.5" y="-812.3" font-family="Times,serif" font-size="14.00">my_map</text>
<text text-anchor="start" x="750.5" y="-797.3" font-family="Times,serif" font-size="14.00">noclip_status : bool</text>
<text text-anchor="start" x="750.5" y="-782.3" font-family="Times,serif" font-size="14.00">original_movement_speed : int</text>
<text text-anchor="start" x="750.5" y="-767.3" font-family="Times,serif" font-size="14.00">physics_engine : PhysicsEngineSimple, NoneType</text>
<text text-anchor="start" x="750.5" y="-752.3" font-family="Times,serif" font-size="14.00">player_light : Light</text>
<text text-anchor="start" x="750.5" y="-737.3" font-family="Times,serif" font-size="14.00">player_sprite : NoneType</text>
<text text-anchor="start" x="750.5" y="-722.3" font-family="Times,serif" font-size="14.00">player_sprite_list : NoneType, SpriteList</text>
<text text-anchor="start" x="750.5" y="-707.3" font-family="Times,serif" font-size="14.00">right_pressed : bool</text>
<text text-anchor="start" x="750.5" y="-692.3" font-family="Times,serif" font-size="14.00">selected_item : int</text>
<text text-anchor="start" x="750.5" y="-677.3" font-family="Times,serif" font-size="14.00">ui_manager : UIManager</text>
<text text-anchor="start" x="750.5" y="-662.3" font-family="Times,serif" font-size="14.00">up_pressed : bool</text>
<polyline fill="none" stroke="black" points="742.5,-654.5 1036.5,-654.5"/>
<text text-anchor="start" x="750.5" y="-639.3" font-family="Times,serif" font-size="14.00">close_message_box()</text>
<text text-anchor="start" x="750.5" y="-624.3" font-family="Times,serif" font-size="14.00">disable_debug_menu()</text>
<text text-anchor="start" x="750.5" y="-609.3" font-family="Times,serif" font-size="14.00">draw_inventory()</text>
<text text-anchor="start" x="750.5" y="-594.3" font-family="Times,serif" font-size="14.00">enable_debug_menu()</text>
<text text-anchor="start" x="750.5" y="-579.3" font-family="Times,serif" font-size="14.00">hyper()</text>
<text text-anchor="start" x="750.5" y="-564.3" font-family="Times,serif" font-size="14.00">load_hotbar_sprites()</text>
<text text-anchor="start" x="750.5" y="-549.3" font-family="Times,serif" font-size="14.00">noclip()</text>
<text text-anchor="start" x="750.5" y="-534.3" font-family="Times,serif" font-size="14.00">on_draw()</text>
<text text-anchor="start" x="750.5" y="-519.3" font-family="Times,serif" font-size="14.00">on_key_press(key, modifiers)</text>
<text text-anchor="start" x="750.5" y="-504.3" font-family="Times,serif" font-size="14.00">on_key_release(key, modifiers)</text>
<text text-anchor="start" x="750.5" y="-489.3" font-family="Times,serif" font-size="14.00">on_mouse_motion(x, y, delta_x, delta_y)</text>
<text text-anchor="start" x="750.5" y="-474.3" font-family="Times,serif" font-size="14.00">on_mouse_press(x, y, button, key_modifiers)</text>
<text text-anchor="start" x="750.5" y="-459.3" font-family="Times,serif" font-size="14.00">on_mouse_release(x, y, button, key_modifiers)</text>
<text text-anchor="start" x="750.5" y="-444.3" font-family="Times,serif" font-size="14.00">on_resize(width, height)</text>
<text text-anchor="start" x="750.5" y="-429.3" font-family="Times,serif" font-size="14.00">on_show_view()</text>
<text text-anchor="start" x="750.5" y="-414.3" font-family="Times,serif" font-size="14.00">on_update(delta_time)</text>
<text text-anchor="start" x="750.5" y="-399.3" font-family="Times,serif" font-size="14.00">scroll_to_player(speed)</text>
<text text-anchor="start" x="750.5" y="-384.3" font-family="Times,serif" font-size="14.00">search()</text>
<text text-anchor="start" x="750.5" y="-369.3" font-family="Times,serif" font-size="14.00">setup()</text>
<text text-anchor="start" x="750.5" y="-354.3" font-family="Times,serif" font-size="14.00">setup_debug_menu()</text>
<text text-anchor="start" x="750.5" y="-339.3" font-family="Times,serif" font-size="14.00">setup_physics()</text>
<text text-anchor="start" x="750.5" y="-324.3" font-family="Times,serif" font-size="14.00">switch_map(map_name, start_x, start_y)</text>
</g>
<!-- rpg.views.game_view.DebugMenu&#45;&gt;rpg.views.game_view.GameView -->
<g id="edge6" class="edge">
<title>rpg.views.game_view.DebugMenu&#45;&gt;rpg.views.game_view.GameView</title>
<path fill="none" stroke="black" d="M889.5,-212.16C889.5,-238.69 889.5,-270.29 889.5,-304.32"/>
<polygon fill="black" stroke="black" points="889.5,-304.46 893.5,-310.46 889.5,-316.46 885.5,-310.46 889.5,-304.46"/>
<text text-anchor="middle" x="925" y="-286.8" font-family="Times,serif" font-size="14.00" fill="green">debug_menu</text>
</g>
<!-- rpg.load_game_map.GameMap -->
<g id="node4" class="node">
<title>rpg.load_game_map.GameMap</title>
<polygon fill="none" stroke="black" points="1213.5,-8 1213.5,-257 1371.5,-257 1371.5,-8 1213.5,-8"/>
<text text-anchor="middle" x="1292.5" y="-241.8" font-family="Times,serif" font-size="14.00">GameMap</text>
<polyline fill="none" stroke="black" points="1213.5,-234 1371.5,-234"/>
<text text-anchor="start" x="1221.5" y="-218.8" font-family="Times,serif" font-size="14.00">background_color : Color</text>
<text text-anchor="start" x="1221.5" y="-203.8" font-family="Times,serif" font-size="14.00">background_color : tuple</text>
<text text-anchor="start" x="1221.5" y="-188.8" font-family="Times,serif" font-size="14.00">light_layer : LightLayer</text>
<text text-anchor="start" x="1221.5" y="-173.8" font-family="Times,serif" font-size="14.00">light_layer : NoneType</text>
<text text-anchor="start" x="1221.5" y="-158.8" font-family="Times,serif" font-size="14.00">map_layers : NoneType</text>
<text text-anchor="start" x="1221.5" y="-143.8" font-family="Times,serif" font-size="14.00">map_layers : OrderedDict</text>
<text text-anchor="start" x="1221.5" y="-128.8" font-family="Times,serif" font-size="14.00">map_size : NoneType</text>
<text text-anchor="start" x="1221.5" y="-113.8" font-family="Times,serif" font-size="14.00">map_size : tuple</text>
<text text-anchor="start" x="1221.5" y="-98.8" font-family="Times,serif" font-size="14.00">name : NoneType</text>
<text text-anchor="start" x="1221.5" y="-83.8" font-family="Times,serif" font-size="14.00">properties : NoneType</text>
<text text-anchor="start" x="1221.5" y="-68.8" font-family="Times,serif" font-size="14.00">properties : dict</text>
<text text-anchor="start" x="1221.5" y="-53.8" font-family="Times,serif" font-size="14.00">scene : NoneType</text>
<text text-anchor="start" x="1221.5" y="-38.8" font-family="Times,serif" font-size="14.00">scene : Scene</text>
<polyline fill="none" stroke="black" points="1213.5,-31 1371.5,-31"/>
<text text-anchor="middle" x="1292.5" y="-15.8" font-family="Times,serif" font-size="14.00"> </text>
</g>
<!-- rpg.views.inventory_view.InventoryView -->
<g id="node6" class="node">
<title>rpg.views.inventory_view.InventoryView</title>
<polygon fill="none" stroke="black" points="1390,-75.5 1390,-189.5 1633,-189.5 1633,-75.5 1390,-75.5"/>
<text text-anchor="middle" x="1511.5" y="-174.3" font-family="Times,serif" font-size="14.00">InventoryView</text>
<polyline fill="none" stroke="black" points="1390,-166.5 1633,-166.5"/>
<text text-anchor="start" x="1398" y="-151.3" font-family="Times,serif" font-size="14.00">started : bool</text>
<polyline fill="none" stroke="black" points="1390,-143.5 1633,-143.5"/>
<text text-anchor="start" x="1398" y="-128.3" font-family="Times,serif" font-size="14.00">on_draw()</text>
<text text-anchor="start" x="1398" y="-113.3" font-family="Times,serif" font-size="14.00">on_key_press(symbol: int, modifiers: int)</text>
<text text-anchor="start" x="1398" y="-98.3" font-family="Times,serif" font-size="14.00">on_show_view()</text>
<text text-anchor="start" x="1398" y="-83.3" font-family="Times,serif" font-size="14.00">setup()</text>
</g>
<!-- rpg.views.loading_view.LoadingView -->
<g id="node7" class="node">
<title>rpg.views.loading_view.LoadingView</title>
<polygon fill="none" stroke="black" points="1651,-68 1651,-197 1822,-197 1822,-68 1651,-68"/>
<text text-anchor="middle" x="1736.5" y="-181.8" font-family="Times,serif" font-size="14.00">LoadingView</text>
<polyline fill="none" stroke="black" points="1651,-174 1822,-174"/>
<text text-anchor="start" x="1659" y="-158.8" font-family="Times,serif" font-size="14.00">map_list : NoneType, dict</text>
<text text-anchor="start" x="1659" y="-143.8" font-family="Times,serif" font-size="14.00">progress : int</text>
<text text-anchor="start" x="1659" y="-128.8" font-family="Times,serif" font-size="14.00">started : bool</text>
<polyline fill="none" stroke="black" points="1651,-121 1822,-121"/>
<text text-anchor="start" x="1659" y="-105.8" font-family="Times,serif" font-size="14.00">on_draw()</text>
<text text-anchor="start" x="1659" y="-90.8" font-family="Times,serif" font-size="14.00">on_update(delta_time: float)</text>
<text text-anchor="start" x="1659" y="-75.8" font-family="Times,serif" font-size="14.00">setup()</text>
</g>
<!-- rpg.views.main_menu_view.MainMenuView -->
<g id="node8" class="node">
<title>rpg.views.main_menu_view.MainMenuView</title>
<polygon fill="none" stroke="black" points="1840,-30.5 1840,-234.5 2025,-234.5 2025,-30.5 1840,-30.5"/>
<text text-anchor="middle" x="1932.5" y="-219.3" font-family="Times,serif" font-size="14.00">MainMenuView</text>
<polyline fill="none" stroke="black" points="1840,-211.5 2025,-211.5"/>
<text text-anchor="start" x="1848" y="-196.3" font-family="Times,serif" font-size="14.00">manager : UIManager</text>
<text text-anchor="start" x="1848" y="-181.3" font-family="Times,serif" font-size="14.00">v_box : UIBoxLayout</text>
<polyline fill="none" stroke="black" points="1840,-173.5 2025,-173.5"/>
<text text-anchor="start" x="1848" y="-158.3" font-family="Times,serif" font-size="14.00">on_click_battle(event)</text>
<text text-anchor="start" x="1848" y="-143.3" font-family="Times,serif" font-size="14.00">on_click_new_game(event)</text>
<text text-anchor="start" x="1848" y="-128.3" font-family="Times,serif" font-size="14.00">on_click_quit(event)</text>
<text text-anchor="start" x="1848" y="-113.3" font-family="Times,serif" font-size="14.00">on_click_resume(event)</text>
<text text-anchor="start" x="1848" y="-98.3" font-family="Times,serif" font-size="14.00">on_click_settings(event)</text>
<text text-anchor="start" x="1848" y="-83.3" font-family="Times,serif" font-size="14.00">on_draw()</text>
<text text-anchor="start" x="1848" y="-68.3" font-family="Times,serif" font-size="14.00">on_hide_view()</text>
<text text-anchor="start" x="1848" y="-53.3" font-family="Times,serif" font-size="14.00">on_key_press(key, _modifiers)</text>
<text text-anchor="start" x="1848" y="-38.3" font-family="Times,serif" font-size="14.00">on_show_view()</text>
</g>
<!-- rpg.message_box.MessageBox -->
<g id="node9" class="node">
<title>rpg.message_box.MessageBox</title>
<polygon fill="none" stroke="black" points="1004,-68 1004,-197 1195,-197 1195,-68 1004,-68"/>
<text text-anchor="middle" x="1099.5" y="-181.8" font-family="Times,serif" font-size="14.00">MessageBox</text>
<polyline fill="none" stroke="black" points="1004,-174 1195,-174"/>
<text text-anchor="start" x="1012" y="-158.8" font-family="Times,serif" font-size="14.00">height : int</text>
<text text-anchor="start" x="1012" y="-143.8" font-family="Times,serif" font-size="14.00">message</text>
<text text-anchor="start" x="1012" y="-128.8" font-family="Times,serif" font-size="14.00">view</text>
<text text-anchor="start" x="1012" y="-113.8" font-family="Times,serif" font-size="14.00">width : int</text>
<polyline fill="none" stroke="black" points="1004,-106 1195,-106"/>
<text text-anchor="start" x="1012" y="-90.8" font-family="Times,serif" font-size="14.00">on_draw()</text>
<text text-anchor="start" x="1012" y="-75.8" font-family="Times,serif" font-size="14.00">on_key_press(_key, _modifiers)</text>
</g>
<!-- rpg.message_box.MessageBox&#45;&gt;rpg.views.game_view.GameView -->
<g id="edge4" class="edge">
<title>rpg.message_box.MessageBox&#45;&gt;rpg.views.game_view.GameView</title>
<path fill="none" stroke="black" d="M1074.69,-197.18C1063.23,-226.59 1048.62,-264.08 1032.66,-305.07"/>
<polygon fill="black" stroke="black" points="1032.59,-305.24 1034.14,-312.29 1028.23,-316.43 1026.68,-309.38 1032.59,-305.24"/>
<text text-anchor="middle" x="1073.5" y="-286.8" font-family="Times,serif" font-size="14.00" fill="green">message_box</text>
</g>
<!-- rpg.__main__.MyWindow -->
<g id="node10" class="node">
<title>rpg.__main__.MyWindow</title>
<polygon fill="none" stroke="black" points="2043,-98 2043,-167 2126,-167 2126,-98 2043,-98"/>
<text text-anchor="middle" x="2084.5" y="-151.8" font-family="Times,serif" font-size="14.00">MyWindow</text>
<polyline fill="none" stroke="black" points="2043,-144 2126,-144"/>
<text text-anchor="start" x="2051" y="-128.8" font-family="Times,serif" font-size="14.00">views : dict</text>
<polyline fill="none" stroke="black" points="2043,-121 2126,-121"/>
<text text-anchor="middle" x="2084.5" y="-105.8" font-family="Times,serif" font-size="14.00"> </text>
</g>
<!-- rpg.sprites.path_following_sprite.PathFollowingSprite -->
<g id="node11" class="node">
<title>rpg.sprites.path_following_sprite.PathFollowingSprite</title>
<polygon fill="none" stroke="black" points="261.5,-45.5 261.5,-219.5 401.5,-219.5 401.5,-45.5 261.5,-45.5"/>
<text text-anchor="middle" x="331.5" y="-204.3" font-family="Times,serif" font-size="14.00">PathFollowingSprite</text>
<polyline fill="none" stroke="black" points="261.5,-196.5 401.5,-196.5"/>
<text text-anchor="start" x="269.5" y="-181.3" font-family="Times,serif" font-size="14.00">center_x</text>
<text text-anchor="start" x="269.5" y="-166.3" font-family="Times,serif" font-size="14.00">center_y</text>
<text text-anchor="start" x="269.5" y="-151.3" font-family="Times,serif" font-size="14.00">change_x</text>
<text text-anchor="start" x="269.5" y="-136.3" font-family="Times,serif" font-size="14.00">change_y</text>
<text text-anchor="start" x="269.5" y="-121.3" font-family="Times,serif" font-size="14.00">cur_point : int</text>
<text text-anchor="start" x="269.5" y="-106.3" font-family="Times,serif" font-size="14.00">path : list</text>
<text text-anchor="start" x="269.5" y="-91.3" font-family="Times,serif" font-size="14.00">position : list</text>
<text text-anchor="start" x="269.5" y="-76.3" font-family="Times,serif" font-size="14.00">speed : int</text>
<polyline fill="none" stroke="black" points="261.5,-68.5 401.5,-68.5"/>
<text text-anchor="start" x="269.5" y="-53.3" font-family="Times,serif" font-size="14.00">on_update(delta_time)</text>
</g>
<!-- rpg.sprites.path_following_sprite.PathFollowingSprite&#45;&gt;rpg.sprites.character_sprite.CharacterSprite -->
<g id="edge1" class="edge">
<title>rpg.sprites.path_following_sprite.PathFollowingSprite&#45;&gt;rpg.sprites.character_sprite.CharacterSprite</title>
<path fill="none" stroke="black" d="M360.54,-219.5C395.12,-321.9 452.42,-491.61 486.21,-591.67"/>
<polygon fill="none" stroke="black" points="482.99,-593.08 489.5,-601.43 489.62,-590.84 482.99,-593.08"/>
</g>
<!-- rpg.sprites.player_sprite.PlayerSprite -->
<g id="node12" class="node">
<title>rpg.sprites.player_sprite.PlayerSprite</title>
<polygon fill="none" stroke="black" points="626,-68 626,-197 775,-197 775,-68 626,-68"/>
<text text-anchor="middle" x="700.5" y="-181.8" font-family="Times,serif" font-size="14.00">PlayerSprite</text>
<polyline fill="none" stroke="black" points="626,-174 775,-174"/>
<text text-anchor="start" x="634" y="-158.8" font-family="Times,serif" font-size="14.00">change_x : float, int</text>
<text text-anchor="start" x="634" y="-143.8" font-family="Times,serif" font-size="14.00">change_y : int, float</text>
<text text-anchor="start" x="634" y="-128.8" font-family="Times,serif" font-size="14.00">destination_point : tuple</text>
<text text-anchor="start" x="634" y="-113.8" font-family="Times,serif" font-size="14.00">footstep_sound : Sound</text>
<text text-anchor="start" x="634" y="-98.8" font-family="Times,serif" font-size="14.00">sound_update : int</text>
<polyline fill="none" stroke="black" points="626,-91 775,-91"/>
<text text-anchor="start" x="634" y="-75.8" font-family="Times,serif" font-size="14.00">on_update(delta_time)</text>
</g>
<!-- rpg.sprites.player_sprite.PlayerSprite&#45;&gt;rpg.sprites.character_sprite.CharacterSprite -->
<g id="edge2" class="edge">
<title>rpg.sprites.player_sprite.PlayerSprite&#45;&gt;rpg.sprites.character_sprite.CharacterSprite</title>
<path fill="none" stroke="black" d="M678.41,-197.18C644.3,-295.47 578.88,-484.04 541.51,-591.77"/>
<polygon fill="none" stroke="black" points="538.18,-590.7 538.2,-601.29 544.79,-592.99 538.18,-590.7"/>
</g>
<!-- rpg.sprites.player_sprite.PlayerSprite&#45;&gt;rpg.views.game_view.GameView -->
<g id="edge5" class="edge">
<title>rpg.sprites.player_sprite.PlayerSprite&#45;&gt;rpg.views.game_view.GameView</title>
<path fill="none" stroke="black" d="M722.83,-197.18C733.14,-226.59 746.29,-264.08 760.66,-305.07"/>
<polygon fill="black" stroke="black" points="760.67,-305.1 766.43,-309.44 764.64,-316.43 758.88,-312.09 760.67,-305.1"/>
<text text-anchor="middle" x="791" y="-286.8" font-family="Times,serif" font-size="14.00" fill="green">player_sprite</text>
</g>
<!-- rpg.sprites.random_walking_sprite.RandomWalkingSprite -->
<g id="node13" class="node">
<title>rpg.sprites.random_walking_sprite.RandomWalkingSprite</title>
<polygon fill="none" stroke="black" points="419.5,-0.5 419.5,-264.5 607.5,-264.5 607.5,-0.5 419.5,-0.5"/>
<text text-anchor="middle" x="513.5" y="-249.3" font-family="Times,serif" font-size="14.00">RandomWalkingSprite</text>
<polyline fill="none" stroke="black" points="419.5,-241.5 607.5,-241.5"/>
<text text-anchor="start" x="427.5" y="-226.3" font-family="Times,serif" font-size="14.00">MAX_PATH_DISTANCE : int</text>
<text text-anchor="start" x="427.5" y="-211.3" font-family="Times,serif" font-size="14.00">bottom</text>
<text text-anchor="start" x="427.5" y="-196.3" font-family="Times,serif" font-size="14.00">center_x</text>
<text text-anchor="start" x="427.5" y="-181.3" font-family="Times,serif" font-size="14.00">center_y</text>
<text text-anchor="start" x="427.5" y="-166.3" font-family="Times,serif" font-size="14.00">change_x</text>
<text text-anchor="start" x="427.5" y="-151.3" font-family="Times,serif" font-size="14.00">change_y</text>
<text text-anchor="start" x="427.5" y="-136.3" font-family="Times,serif" font-size="14.00">destination : NoneType, tuple</text>
<text text-anchor="start" x="427.5" y="-121.3" font-family="Times,serif" font-size="14.00">left</text>
<text text-anchor="start" x="427.5" y="-106.3" font-family="Times,serif" font-size="14.00">position</text>
<text text-anchor="start" x="427.5" y="-91.3" font-family="Times,serif" font-size="14.00">right</text>
<text text-anchor="start" x="427.5" y="-76.3" font-family="Times,serif" font-size="14.00">scene</text>
<text text-anchor="start" x="427.5" y="-61.3" font-family="Times,serif" font-size="14.00">speed : int</text>
<text text-anchor="start" x="427.5" y="-46.3" font-family="Times,serif" font-size="14.00">top</text>
<text text-anchor="start" x="427.5" y="-31.3" font-family="Times,serif" font-size="14.00">wall_list : NoneType</text>
<polyline fill="none" stroke="black" points="419.5,-23.5 607.5,-23.5"/>
<text text-anchor="start" x="427.5" y="-8.3" font-family="Times,serif" font-size="14.00">on_update(delta_time)</text>
</g>
<!-- rpg.sprites.random_walking_sprite.RandomWalkingSprite&#45;&gt;rpg.sprites.character_sprite.CharacterSprite -->
<g id="edge3" class="edge">
<title>rpg.sprites.random_walking_sprite.RandomWalkingSprite&#45;&gt;rpg.sprites.character_sprite.CharacterSprite</title>
<path fill="none" stroke="black" d="M513.5,-264.66C513.5,-366.58 513.5,-504.7 513.5,-591.19"/>
<polygon fill="none" stroke="black" points="510,-591.22 513.5,-601.22 517,-591.22 510,-591.22"/>
</g>
<!-- rpg.views.settings_view.SettingsView -->
<g id="node14" class="node">
<title>rpg.views.settings_view.SettingsView</title>
<polygon fill="none" stroke="black" points="2144,-75.5 2144,-189.5 2387,-189.5 2387,-75.5 2144,-75.5"/>
<text text-anchor="middle" x="2265.5" y="-174.3" font-family="Times,serif" font-size="14.00">SettingsView</text>
<polyline fill="none" stroke="black" points="2144,-166.5 2387,-166.5"/>
<text text-anchor="start" x="2152" y="-151.3" font-family="Times,serif" font-size="14.00">started : bool</text>
<polyline fill="none" stroke="black" points="2144,-143.5 2387,-143.5"/>
<text text-anchor="start" x="2152" y="-128.3" font-family="Times,serif" font-size="14.00">on_draw()</text>
<text text-anchor="start" x="2152" y="-113.3" font-family="Times,serif" font-size="14.00">on_key_press(symbol: int, modifiers: int)</text>
<text text-anchor="start" x="2152" y="-98.3" font-family="Times,serif" font-size="14.00">on_show_view()</text>
<text text-anchor="start" x="2152" y="-83.3" font-family="Times,serif" font-size="14.00">setup()</text>
</g>
</g>
</svg>
