<?xml version="1.0" encoding="UTF-8" standalone="no"?>
<!DOCTYPE svg PUBLIC "-//W3C//DTD SVG 1.1//EN"
 "http://www.w3.org/Graphics/SVG/1.1/DTD/svg11.dtd">
<!-- Generated by graphviz version 6.0.1 (20220911.1526)
 -->
<!-- Title: packages Pages: 1 -->
<svg width="1134pt" height="476pt"
 viewBox="0.00 0.00 1134.00 476.00" xmlns="http://www.w3.org/2000/svg" xmlns:xlink="http://www.w3.org/1999/xlink">
<g id="graph0" class="graph" transform="scale(1 1) rotate(0) translate(4 472)">
<title>packages</title>
<polygon fill="white" stroke="none" points="-4,4 -4,-472 1130,-472 1130,4 -4,4"/>
<!-- rpg -->
<g id="node1" class="node">
<title>rpg</title>
<polygon fill="none" stroke="black" points="89,-36 35,-36 35,0 89,0 89,-36"/>
<text text-anchor="middle" x="62" y="-14.3" font-family="Times,serif" font-size="14.00">rpg</text>
</g>
<!-- rpg.__main__ -->
<g id="node2" class="node">
<title>rpg.__main__</title>
<polygon fill="none" stroke="black" points="200.5,-36 107.5,-36 107.5,0 200.5,0 200.5,-36"/>
<text text-anchor="middle" x="154" y="-14.3" font-family="Times,serif" font-size="14.00">rpg.__main__</text>
</g>
<!-- rpg.constants -->
<g id="node3" class="node">
<title>rpg.constants</title>
<polygon fill="none" stroke="black" points="617.5,-468 528.5,-468 528.5,-432 617.5,-432 617.5,-468"/>
<text text-anchor="middle" x="573" y="-446.3" font-family="Times,serif" font-size="14.00">rpg.constants</text>
</g>
<!-- rpg.__main__&#45;&gt;rpg.constants -->
<g id="edge1" class="edge">
<title>rpg.__main__&#45;&gt;rpg.constants</title>
<path fill="none" stroke="black" d="M111.92,-36.14C66.32,-57.84 0,-99.9 0,-161 0,-161 0,-161 0,-307 0,-412.99 374.01,-440.4 517.69,-447.03"/>
<polygon fill="black" stroke="black" points="528.04,-447.49 517.85,-451.54 523.04,-447.26 518.05,-447.04 518.05,-447.04 518.05,-447.04 523.04,-447.26 518.25,-442.55 528.04,-447.49 528.04,-447.49"/>
</g>
<!-- rpg.views -->
<g id="node12" class="node">
<title>rpg.views</title>
<polygon fill="none" stroke="black" points="343,-108 273,-108 273,-72 343,-72 343,-108"/>
<text text-anchor="middle" x="308" y="-86.3" font-family="Times,serif" font-size="14.00">rpg.views</text>
</g>
<!-- rpg.__main__&#45;&gt;rpg.views -->
<g id="edge2" class="edge">
<title>rpg.__main__&#45;&gt;rpg.views</title>
<path fill="none" stroke="black" d="M191.67,-36.12C213.43,-46.01 240.91,-58.51 263.7,-68.86"/>
<polygon fill="black" stroke="black" points="272.83,-73.01 261.86,-72.97 268.28,-70.94 263.72,-68.87 263.72,-68.87 263.72,-68.87 268.28,-70.94 265.59,-64.78 272.83,-73.01 272.83,-73.01"/>
</g>
<!-- rpg.draw_bar -->
<g id="node4" class="node">
<title>rpg.draw_bar</title>
<polygon fill="none" stroke="black" points="230.5,-252 141.5,-252 141.5,-216 230.5,-216 230.5,-252"/>
<text text-anchor="middle" x="186" y="-230.3" font-family="Times,serif" font-size="14.00">rpg.draw_bar</text>
</g>
<!-- rpg.load_game_map -->
<g id="node5" class="node">
<title>rpg.load_game_map</title>
<polygon fill="none" stroke="black" points="377.5,-252 248.5,-252 248.5,-216 377.5,-216 377.5,-252"/>
<text text-anchor="middle" x="313" y="-230.3" font-family="Times,serif" font-size="14.00">rpg.load_game_map</text>
</g>
<!-- rpg.load_game_map&#45;&gt;rpg.constants -->
<g id="edge3" class="edge">
<title>rpg.load_game_map&#45;&gt;rpg.constants</title>
<path fill="none" stroke="black" d="M248.36,-249.9C180.69,-265.5 84.16,-287.79 84,-288 74.04,-300.52 74.53,-311.1 84,-324 135.52,-394.2 401.79,-430.74 518.3,-443.57"/>
<polygon fill="black" stroke="black" points="528.43,-444.67 518.01,-448.07 523.46,-444.13 518.49,-443.6 518.49,-443.6 518.49,-443.6 523.46,-444.13 518.98,-439.12 528.43,-444.67 528.43,-444.67"/>
</g>
<!-- rpg.sprites.character_sprite -->
<g id="node8" class="node">
<title>rpg.sprites.character_sprite</title>
<polygon fill="none" stroke="black" points="486,-396 322,-396 322,-360 486,-360 486,-396"/>
<text text-anchor="middle" x="404" y="-374.3" font-family="Times,serif" font-size="14.00">rpg.sprites.character_sprite</text>
</g>
<!-- rpg.load_game_map&#45;&gt;rpg.sprites.character_sprite -->
<g id="edge4" class="edge">
<title>rpg.load_game_map&#45;&gt;rpg.sprites.character_sprite</title>
<path fill="none" stroke="black" d="M248.37,-250.21C184.54,-265.32 96.23,-286.44 95,-288 85.11,-300.58 84.69,-311.77 95,-324 122.34,-356.42 230.89,-369.01 311.66,-373.9"/>
<polygon fill="black" stroke="black" points="321.86,-374.49 311.62,-378.4 316.87,-374.2 311.88,-373.91 311.88,-373.91 311.88,-373.91 316.87,-374.2 312.13,-369.42 321.86,-374.49 321.86,-374.49"/>
</g>
<!-- rpg.sprites.path_following_sprite -->
<g id="node9" class="node">
<title>rpg.sprites.path_following_sprite</title>
<polygon fill="none" stroke="black" points="301.5,-324 104.5,-324 104.5,-288 301.5,-288 301.5,-324"/>
<text text-anchor="middle" x="203" y="-302.3" font-family="Times,serif" font-size="14.00">rpg.sprites.path_following_sprite</text>
</g>
<!-- rpg.load_game_map&#45;&gt;rpg.sprites.path_following_sprite -->
<g id="edge5" class="edge">
<title>rpg.load_game_map&#45;&gt;rpg.sprites.path_following_sprite</title>
<path fill="none" stroke="black" d="M286.09,-252.12C271.84,-261.19 254.15,-272.45 238.76,-282.24"/>
<polygon fill="black" stroke="black" points="230.01,-287.81 236.03,-278.64 234.23,-285.13 238.45,-282.44 238.45,-282.44 238.45,-282.44 234.23,-285.13 240.87,-286.24 230.01,-287.81 230.01,-287.81"/>
</g>
<!-- rpg.sprites.random_walking_sprite -->
<g id="node11" class="node">
<title>rpg.sprites.random_walking_sprite</title>
<polygon fill="none" stroke="black" points="526,-324 320,-324 320,-288 526,-288 526,-324"/>
<text text-anchor="middle" x="423" y="-302.3" font-family="Times,serif" font-size="14.00">rpg.sprites.random_walking_sprite</text>
</g>
<!-- rpg.load_game_map&#45;&gt;rpg.sprites.random_walking_sprite -->
<g id="edge6" class="edge">
<title>rpg.load_game_map&#45;&gt;rpg.sprites.random_walking_sprite</title>
<path fill="none" stroke="black" d="M339.91,-252.12C354.16,-261.19 371.85,-272.45 387.24,-282.24"/>
<polygon fill="black" stroke="black" points="395.99,-287.81 385.13,-286.24 391.77,-285.13 387.55,-282.44 387.55,-282.44 387.55,-282.44 391.77,-285.13 389.97,-278.64 395.99,-287.81 395.99,-287.81"/>
</g>
<!-- rpg.message_box -->
<g id="node6" class="node">
<title>rpg.message_box</title>
<polygon fill="none" stroke="black" points="898,-396 786,-396 786,-360 898,-360 898,-396"/>
<text text-anchor="middle" x="842" y="-374.3" font-family="Times,serif" font-size="14.00">rpg.message_box</text>
</g>
<!-- rpg.message_box&#45;&gt;rpg.constants -->
<g id="edge7" class="edge">
<title>rpg.message_box&#45;&gt;rpg.constants</title>
<path fill="none" stroke="black" d="M785.94,-393.59C739.46,-405.68 673.77,-422.78 627.68,-434.77"/>
<polygon fill="black" stroke="black" points="617.87,-437.32 626.41,-430.45 622.7,-436.07 627.54,-434.81 627.54,-434.81 627.54,-434.81 622.7,-436.07 628.68,-439.16 617.87,-437.32 617.87,-437.32"/>
</g>
<!-- rpg.sprites -->
<g id="node7" class="node">
<title>rpg.sprites</title>
<polygon fill="none" stroke="black" points="293,-36 219,-36 219,0 293,0 293,-36"/>
<text text-anchor="middle" x="256" y="-14.3" font-family="Times,serif" font-size="14.00">rpg.sprites</text>
</g>
<!-- rpg.sprites.character_sprite&#45;&gt;rpg.constants -->
<g id="edge8" class="edge">
<title>rpg.sprites.character_sprite&#45;&gt;rpg.constants</title>
<path fill="none" stroke="black" d="M445.34,-396.12C468.55,-405.74 497.69,-417.81 522.27,-427.99"/>
<polygon fill="black" stroke="black" points="531.79,-431.93 520.83,-432.26 527.17,-430.02 522.55,-428.1 522.55,-428.1 522.55,-428.1 527.17,-430.02 524.28,-423.95 531.79,-431.93 531.79,-431.93"/>
</g>
<!-- rpg.sprites.path_following_sprite&#45;&gt;rpg.sprites.character_sprite -->
<g id="edge9" class="edge">
<title>rpg.sprites.path_following_sprite&#45;&gt;rpg.sprites.character_sprite</title>
<path fill="none" stroke="black" d="M251.91,-324.03C280,-333.81 315.46,-346.16 345.07,-356.48"/>
<polygon fill="black" stroke="black" points="354.87,-359.89 343.94,-360.85 350.15,-358.24 345.42,-356.6 345.42,-356.6 345.42,-356.6 350.15,-358.24 346.9,-352.35 354.87,-359.89 354.87,-359.89"/>
</g>
<!-- rpg.sprites.player_sprite -->
<g id="node10" class="node">
<title>rpg.sprites.player_sprite</title>
<polygon fill="none" stroke="black" points="730,-324 582,-324 582,-288 730,-288 730,-324"/>
<text text-anchor="middle" x="656" y="-302.3" font-family="Times,serif" font-size="14.00">rpg.sprites.player_sprite</text>
</g>
<!-- rpg.sprites.player_sprite&#45;&gt;rpg.sprites.character_sprite -->
<g id="edge10" class="edge">
<title>rpg.sprites.player_sprite&#45;&gt;rpg.sprites.character_sprite</title>
<path fill="none" stroke="black" d="M594.68,-324.03C558.7,-334.03 513.07,-346.7 475.47,-357.15"/>
<polygon fill="black" stroke="black" points="465.6,-359.89 474.03,-352.88 470.42,-358.55 475.23,-357.21 475.23,-357.21 475.23,-357.21 470.42,-358.55 476.44,-361.55 465.6,-359.89 465.6,-359.89"/>
</g>
<!-- rpg.sprites.random_walking_sprite&#45;&gt;rpg.sprites.character_sprite -->
<g id="edge11" class="edge">
<title>rpg.sprites.random_walking_sprite&#45;&gt;rpg.sprites.character_sprite</title>
<path fill="none" stroke="black" d="M418.3,-324.3C416.19,-332.1 413.64,-341.49 411.28,-350.17"/>
<polygon fill="black" stroke="black" points="408.64,-359.9 406.92,-349.07 409.95,-355.07 411.26,-350.24 411.26,-350.24 411.26,-350.24 409.95,-355.07 415.61,-351.42 408.64,-359.9 408.64,-359.9"/>
</g>
<!-- rpg.views.loading_view -->
<g id="node16" class="node">
<title>rpg.views.loading_view</title>
<polygon fill="none" stroke="black" points="675.5,-180 528.5,-180 528.5,-144 675.5,-144 675.5,-180"/>
<text text-anchor="middle" x="602" y="-158.3" font-family="Times,serif" font-size="14.00">rpg.views.loading_view</text>
</g>
<!-- rpg.views&#45;&gt;rpg.views.loading_view -->
<g id="edge12" class="edge">
<title>rpg.views&#45;&gt;rpg.views.loading_view</title>
<path fill="none" stroke="black" d="M343.17,-99.37C386.68,-109.73 462.14,-127.7 520.39,-141.57"/>
<polygon fill="black" stroke="black" points="530.32,-143.93 519.55,-146 525.46,-142.78 520.59,-141.62 520.59,-141.62 520.59,-141.62 525.46,-142.78 521.64,-137.24 530.32,-143.93 530.32,-143.93"/>
</g>
<!-- rpg.views.battle_view -->
<g id="node13" class="node">
<title>rpg.views.battle_view</title>
<polygon fill="none" stroke="black" points="641.5,-396 504.5,-396 504.5,-360 641.5,-360 641.5,-396"/>
<text text-anchor="middle" x="573" y="-374.3" font-family="Times,serif" font-size="14.00">rpg.views.battle_view</text>
</g>
<!-- rpg.views.battle_view&#45;&gt;rpg.constants -->
<g id="edge13" class="edge">
<title>rpg.views.battle_view&#45;&gt;rpg.constants</title>
<path fill="none" stroke="black" d="M573,-396.3C573,-404.02 573,-413.29 573,-421.89"/>
<polygon fill="black" stroke="black" points="573,-431.9 568.5,-421.9 573,-426.9 573,-421.9 573,-421.9 573,-421.9 573,-426.9 577.5,-421.9 573,-431.9 573,-431.9"/>
</g>
<!-- rpg.views.game_view -->
<g id="node14" class="node">
<title>rpg.views.game_view</title>
<polygon fill="none" stroke="black" points="719.5,-252 582.5,-252 582.5,-216 719.5,-216 719.5,-252"/>
<text text-anchor="middle" x="651" y="-230.3" font-family="Times,serif" font-size="14.00">rpg.views.game_view</text>
</g>
<!-- rpg.views.game_view&#45;&gt;rpg.constants -->
<g id="edge14" class="edge">
<title>rpg.views.game_view&#45;&gt;rpg.constants</title>
<path fill="none" stroke="black" d="M698.04,-252.03C713.95,-260.3 729.96,-272.01 739,-288 746.87,-301.93 745.85,-309.54 739,-324 715.85,-372.85 662.94,-407.33 623.03,-427.54"/>
<polygon fill="black" stroke="black" points="613.96,-432 620.95,-423.55 618.45,-429.79 622.93,-427.59 622.93,-427.59 622.93,-427.59 618.45,-429.79 624.92,-431.62 613.96,-432 613.96,-432"/>
</g>
<!-- rpg.views.game_view&#45;&gt;rpg.message_box -->
<g id="edge15" class="edge">
<title>rpg.views.game_view&#45;&gt;rpg.message_box</title>
<path fill="none" stroke="black" d="M705.01,-252.11C727.13,-260.71 752.14,-272.63 772,-288 794.55,-305.45 814.01,-331.69 826.65,-351.16"/>
<polygon fill="black" stroke="black" points="832.13,-359.85 822.99,-353.79 829.46,-355.62 826.79,-351.39 826.79,-351.39 826.79,-351.39 829.46,-355.62 830.6,-348.99 832.13,-359.85 832.13,-359.85"/>
</g>
<!-- rpg.views.game_view&#45;&gt;rpg.sprites.player_sprite -->
<g id="edge16" class="edge">
<title>rpg.views.game_view&#45;&gt;rpg.sprites.player_sprite</title>
<path fill="none" stroke="black" d="M652.24,-252.3C652.79,-260.02 653.45,-269.29 654.06,-277.89"/>
<polygon fill="black" stroke="black" points="654.78,-287.9 649.58,-278.24 654.42,-282.91 654.07,-277.92 654.07,-277.92 654.07,-277.92 654.42,-282.91 658.55,-277.6 654.78,-287.9 654.78,-287.9"/>
</g>
<!-- rpg.views.inventory_view -->
<g id="node15" class="node">
<title>rpg.views.inventory_view</title>
<polygon fill="none" stroke="black" points="896,-252 738,-252 738,-216 896,-216 896,-252"/>
<text text-anchor="middle" x="817" y="-230.3" font-family="Times,serif" font-size="14.00">rpg.views.inventory_view</text>
</g>
<!-- rpg.views.loading_view&#45;&gt;rpg.draw_bar -->
<g id="edge17" class="edge">
<title>rpg.views.loading_view&#45;&gt;rpg.draw_bar</title>
<path fill="none" stroke="black" d="M528.33,-170.14C456.75,-177.9 344.98,-192.17 240.44,-215.85"/>
<polygon fill="black" stroke="black" points="230.67,-218.1 239.41,-211.47 235.55,-216.98 240.42,-215.86 240.42,-215.86 240.42,-215.86 235.55,-216.98 241.43,-220.24 230.67,-218.1 230.67,-218.1"/>
</g>
<!-- rpg.views.loading_view&#45;&gt;rpg.load_game_map -->
<g id="edge18" class="edge">
<title>rpg.views.loading_view&#45;&gt;rpg.load_game_map</title>
<path fill="none" stroke="black" d="M531.67,-180.03C488.02,-190.61 431.99,-204.18 387.57,-214.94"/>
<polygon fill="black" stroke="black" points="377.7,-217.33 386.36,-210.6 382.56,-216.15 387.42,-214.97 387.42,-214.97 387.42,-214.97 382.56,-216.15 388.48,-219.35 377.7,-217.33 377.7,-217.33"/>
</g>
<!-- rpg.views.loading_view&#45;&gt;rpg.views.battle_view -->
<g id="edge19" class="edge">
<title>rpg.views.loading_view&#45;&gt;rpg.views.battle_view</title>
<path fill="none" stroke="black" d="M590.18,-180.29C584.08,-190.26 577.24,-203.3 574,-216 562.32,-261.75 565.62,-317.21 569.21,-349.66"/>
<polygon fill="black" stroke="black" points="570.42,-359.73 564.76,-350.34 569.83,-354.77 569.23,-349.8 569.23,-349.8 569.23,-349.8 569.83,-354.77 573.7,-349.27 570.42,-359.73 570.42,-359.73"/>
</g>
<!-- rpg.views.loading_view&#45;&gt;rpg.views.game_view -->
<g id="edge20" class="edge">
<title>rpg.views.loading_view&#45;&gt;rpg.views.game_view</title>
<path fill="none" stroke="black" d="M614.11,-180.3C619.87,-188.53 626.86,-198.52 633.21,-207.58"/>
<polygon fill="black" stroke="black" points="639.03,-215.9 629.61,-210.28 636.16,-211.8 633.29,-207.7 633.29,-207.7 633.29,-207.7 636.16,-211.8 636.98,-205.12 639.03,-215.9 639.03,-215.9"/>
</g>
<!-- rpg.views.loading_view&#45;&gt;rpg.views.inventory_view -->
<g id="edge21" class="edge">
<title>rpg.views.loading_view&#45;&gt;rpg.views.inventory_view</title>
<path fill="none" stroke="black" d="M654.32,-180.03C684.62,-189.9 722.95,-202.38 754.79,-212.75"/>
<polygon fill="black" stroke="black" points="764.45,-215.89 753.54,-217.07 759.69,-214.34 754.94,-212.79 754.94,-212.79 754.94,-212.79 759.69,-214.34 756.33,-208.51 764.45,-215.89 764.45,-215.89"/>
</g>
<!-- rpg.views.main_menu_view -->
<g id="node17" class="node">
<title>rpg.views.main_menu_view</title>
<polygon fill="none" stroke="black" points="1086,-252 914,-252 914,-216 1086,-216 1086,-252"/>
<text text-anchor="middle" x="1000" y="-230.3" font-family="Times,serif" font-size="14.00">rpg.views.main_menu_view</text>
</g>
<!-- rpg.views.loading_view&#45;&gt;rpg.views.main_menu_view -->
<g id="edge22" class="edge">
<title>rpg.views.loading_view&#45;&gt;rpg.views.main_menu_view</title>
<path fill="none" stroke="black" d="M675.8,-175.83C734.82,-186.1 819.99,-200.98 903.84,-215.8"/>
<polygon fill="black" stroke="black" points="913.79,-217.56 903.16,-220.25 908.87,-216.69 903.94,-215.82 903.94,-215.82 903.94,-215.82 908.87,-216.69 904.73,-211.38 913.79,-217.56 913.79,-217.56"/>
</g>
<!-- rpg.views.settings_view -->
<g id="node18" class="node">
<title>rpg.views.settings_view</title>
<polygon fill="none" stroke="black" points="1126,-396 978,-396 978,-360 1126,-360 1126,-396"/>
<text text-anchor="middle" x="1052" y="-374.3" font-family="Times,serif" font-size="14.00">rpg.views.settings_view</text>
</g>
<!-- rpg.views.loading_view&#45;&gt;rpg.views.settings_view -->
<g id="edge23" class="edge">
<title>rpg.views.loading_view&#45;&gt;rpg.views.settings_view</title>
<path fill="none" stroke="black" d="M675.64,-165.59C806.28,-170.95 1067.51,-185.4 1095,-216 1129.22,-254.1 1095.56,-316.48 1071.53,-351.35"/>
<polygon fill="black" stroke="black" points="1065.68,-359.59 1067.8,-348.83 1068.57,-355.52 1071.47,-351.44 1071.47,-351.44 1071.47,-351.44 1068.57,-355.52 1075.14,-354.05 1065.68,-359.59 1065.68,-359.59"/>
</g>
<!-- rpg.views.settings_view&#45;&gt;rpg.constants -->
<g id="edge24" class="edge">
<title>rpg.views.settings_view&#45;&gt;rpg.constants</title>
<path fill="none" stroke="black" d="M977.94,-389.82C881.17,-403.96 713.92,-428.41 627.78,-440.99"/>
<polygon fill="black" stroke="black" points="617.69,-442.47 626.93,-436.57 622.63,-441.75 627.58,-441.02 627.58,-441.02 627.58,-441.02 622.63,-441.75 628.23,-445.48 617.69,-442.47 617.69,-442.47"/>
</g>
</g>
</svg>
